<svg xmlns="http://www.w3.org/2000/svg" viewBox="0 0 32 32" fill="none">
  <path d="M4 6.5c4.4 0 8.2 1 12 3.6v16.1c-3.8-2.6-7.6-3.6-12-3.6V6.5Z" stroke="#f3ead6" stroke-width="1.8" stroke-linejoin="round"/>
  <path d="M28 6.5c-4.4 0-8.2 1-12 3.6v16.1c3.8-2.6 7.6-3.6 12-3.6V6.5Z" stroke="#f3ead6" stroke-width="1.8" stroke-linejoin="round"/>
  <path d="M7.5 11c2.3.2 4.1.8 5.8 1.8M7.5 15.2c2.3.2 4.1.8 5.8 1.8M24.5 11c-2.3.2-4.1.8-5.8 1.8M24.5 15.2c-2.3.2-4.1.8-5.8 1.8" stroke="#f3ead6" stroke-width="1.35" stroke-linecap="round"/>
</svg>
